<svg xmlns="http://www.w3.org/2000/svg" viewBox="0 0 44 44"><defs><style>.cls-1{fill:#303030;}</style></defs><title>Asset 15</title><g id="Layer_2" data-name="Layer 2"><g id="Layer_1-2" data-name="Layer 1"><path class="cls-1" d="M41.653,16.846H27.108c.014-.155.046-.3.046-.461V5.154a5.155,5.155,0,0,0-10.309,0V16.385c0,.158.033.306.047.461H2.347A2.349,2.349,0,0,0,0,19.192V23.4a2.35,2.35,0,0,0,2.347,2.347h1.6a.461.461,0,0,1,.456.39L7.03,43.2a.939.939,0,0,0,.932.8H36.038a.939.939,0,0,0,.932-.8L39.6,26.141a.46.46,0,0,1,.455-.39h1.6A2.35,2.35,0,0,0,44,23.4V19.192A2.349,2.349,0,0,0,41.653,16.846ZM18.732,5.154a3.268,3.268,0,0,1,6.536,0V16.385a3.268,3.268,0,1,1-6.536,0ZM35.289,41.723a.461.461,0,0,1-.455.391H9.166a.461.461,0,0,1-.455-.391L6.335,26.281a.46.46,0,0,1,.456-.53H37.209a.46.46,0,0,1,.456.53ZM42.114,23.4a.462.462,0,0,1-.461.461H2.347a.461.461,0,0,1-.461-.461V19.192a.46.46,0,0,1,.461-.46h15.09a5.112,5.112,0,0,0,9.126,0h15.09a.461.461,0,0,1,.461.46Z"/><path class="cls-1" d="M21.057,14.981h0A.943.943,0,0,1,22,14.038h0a.943.943,0,0,1,.943.943h0a.943.943,0,0,1-.943.943h0A.943.943,0,0,1,21.057,14.981Z"/><path class="cls-1" d="M19.192,38.385a.944.944,0,0,1-.943-.943V30.423a.943.943,0,1,1,1.886,0v7.019A.944.944,0,0,1,19.192,38.385Z"/><path class="cls-1" d="M13.577,38.385a.944.944,0,0,1-.943-.943V30.423a.943.943,0,0,1,1.886,0v7.019A.944.944,0,0,1,13.577,38.385Z"/><path class="cls-1" d="M24.808,38.385a.944.944,0,0,1-.943-.943V30.423a.943.943,0,1,1,1.886,0v7.019A.944.944,0,0,1,24.808,38.385Z"/><path class="cls-1" d="M30.423,38.385a.944.944,0,0,1-.943-.943V30.423a.943.943,0,1,1,1.886,0v7.019A.944.944,0,0,1,30.423,38.385Z"/></g></g></svg>