<svg xmlns="http://www.w3.org/2000/svg" viewBox="0 0 44 44"><defs><style>.cls-1{fill:#303030;}</style></defs><title>ecommerce-icon-1</title><g id="Layer_2" data-name="Layer 2"><g id="Layer_1-2" data-name="Layer 1"><path class="cls-1" d="M43.988,42.98a.715.715,0,0,1,0-.122c-.791-4.589-2.9-7.327-5.652-7.327l-.605,0c-2.482,0-4.443,0-6.427-2.843a.943.943,0,0,0-1.548,1.079c2.353,3.37,5,3.652,7.5,3.652.191,0,.379,0,.567,0l.506,0c1.4,0,2.641,1.5,3.4,4.107a.46.46,0,0,1-.442.59H2.7a.462.462,0,0,1-.443-.59c.765-2.61,2.005-4.107,3.406-4.107l.508,0,.557,0h0c2.616,0,5.368-.282,7.722-3.65a.944.944,0,0,0-1.548-1.08c-1.84,2.633-3.836,2.842-6.255,2.842l-.986,0c-2.749,0-4.86,2.738-5.652,7.325a.611.611,0,0,1,0,.121A.6.6,0,0,1,0,43.06a.734.734,0,0,1,.02.1.957.957,0,0,0,.035.18.946.946,0,0,0,.074.164,1,1,0,0,0,.1.145.89.89,0,0,0,.131.123.875.875,0,0,0,.143.1.953.953,0,0,0,.18.067.92.92,0,0,1,.127.05A.9.9,0,0,0,.933,44H43.066a1.093,1.093,0,0,0,.13-.008.848.848,0,0,1,.129-.052.883.883,0,0,0,.173-.064,1.04,1.04,0,0,0,.147-.1.9.9,0,0,0,.128-.122.92.92,0,0,0,.1-.148.87.87,0,0,0,.073-.16.9.9,0,0,0,.036-.183.858.858,0,0,1,.019-.1A.58.58,0,0,1,43.988,42.98Z"/><path class="cls-1" d="M35.846,14.256a.455.455,0,0,1-.263-.232v-.447c0-4.444-1.158-7.854-3.442-10.137S26.446,0,22,0,14.142,1.158,11.859,3.44,8.417,9.133,8.416,13.564v.462a.454.454,0,0,1-.261.23,3.747,3.747,0,0,0-2.547,3.533V20.6a3.757,3.757,0,0,0,3.753,3.751h3.783a.483.483,0,0,1,.082.134c1.86,4.88,5.468,8.289,8.774,8.289a5.6,5.6,0,0,0,1.711-.279.943.943,0,0,0-.29-1.84.954.954,0,0,0-.29.045A3.73,3.73,0,0,1,22,30.884c-3.258,0-8.185-5.383-8.185-13.5C13.815,9.217,18.266,7.5,22,7.5a7.435,7.435,0,0,1,6.275,2.717.943.943,0,1,0,1.5-1.147A9.335,9.335,0,0,0,22,5.615c-5.214,0-8.666,2.86-9.719,8.054a.46.46,0,0,1-.452.369H10.765a.46.46,0,0,1-.461-.461c0-3.995.941-6.878,2.878-8.814S18,1.886,22,1.886s6.881.941,8.818,2.877S33.7,9.582,33.7,13.577a.46.46,0,0,1-.461.461h-.584l-1.659-.01H30.97a.727.727,0,0,0-.1.008.944.944,0,0,0-.821,1.051,19.048,19.048,0,0,1,.132,2.3,18.2,18.2,0,0,1-.913,5.721.94.94,0,0,0,.6,1.191.964.964,0,0,0,.239.045v0h3.122a.46.46,0,0,1,.461.461,1.867,1.867,0,0,1-1.865,1.864H26.213a.461.461,0,0,1-.461-.461v-1.4a.944.944,0,0,0-1.887,0v2.807a.945.945,0,0,0,.944.943h7.022a3.755,3.755,0,0,0,3.752-3.75v-.259a.461.461,0,0,1,.306-.434,3.754,3.754,0,0,0,2.5-3.519V17.789A3.746,3.746,0,0,0,35.846,14.256ZM11.5,15.924a.46.46,0,0,1,.46.481l0,.116c-.013.295-.026.574-.026.867a20.281,20.281,0,0,0,.511,4.51.461.461,0,0,1-.449.563H9.361A1.868,1.868,0,0,1,7.5,20.6V17.789a1.868,1.868,0,0,1,1.866-1.865ZM36.505,20.6a1.868,1.868,0,0,1-1.865,1.865H32.006a.462.462,0,0,1-.45-.564,20.184,20.184,0,0,0,.516-4.509c0-.332-.014-.663-.028-.983a.46.46,0,0,1,.46-.481H34.64a1.868,1.868,0,0,1,1.865,1.865Z"/></g></g></svg>