<svg xmlns="http://www.w3.org/2000/svg" viewBox="0 0 44 34.173"><defs><style>.cls-1{fill:#303030;}</style></defs><title>Asset 14</title><g id="Layer_2" data-name="Layer 2"><g id="Layer_1-2" data-name="Layer 1"><path class="cls-1" d="M43.9,17.393a.421.421,0,0,1-.028-.076L39.689,8.944a.939.939,0,0,0-.844-.521H27.154V.943A.944.944,0,0,0,26.211,0H3.672A3.716,3.716,0,0,0,0,3.75,3.731,3.731,0,0,0,2.763,7.369a.46.46,0,0,1,.312.613,3.778,3.778,0,0,0-.268,1.384,3.716,3.716,0,0,0,3.673,3.75h.332a.461.461,0,0,1,.435.613,3.72,3.72,0,0,0,3.444,5h7.1a.943.943,0,1,0,0-1.886h-7.1a1.866,1.866,0,0,1,0-3.729H16.15a.943.943,0,0,0,0-1.886H6.48a1.866,1.866,0,0,1,0-3.729h5.459a.943.943,0,0,0,0-1.886H3.672A1.828,1.828,0,0,1,1.886,3.75,1.828,1.828,0,0,1,3.672,1.886H24.807a.46.46,0,0,1,.461.461V26.211a.46.46,0,0,1-.461.461H14.2a.459.459,0,0,1-.4-.229,5.105,5.105,0,0,0-8.873,0,.459.459,0,0,1-.4.229H.943a.943.943,0,0,0,0,1.886H3.751a.46.46,0,0,1,.46.461,5.155,5.155,0,0,0,10.309,0,.46.46,0,0,1,.461-.461H29.019a.461.461,0,0,1,.461.461,5.155,5.155,0,0,0,10.309,0,.46.46,0,0,1,.46-.461h2.808A.944.944,0,0,0,44,27.615V17.789A.923.923,0,0,0,43.9,17.393ZM9.366,32.287a3.269,3.269,0,1,1,3.268-3.268A3.273,3.273,0,0,1,9.366,32.287ZM35.577,10.77a.46.46,0,0,1,.461-.461h1.94a.461.461,0,0,1,.412.254L41.2,16.179a.46.46,0,0,1-.412.666H36.038a.46.46,0,0,1-.461-.46Zm-.943,21.517a3.272,3.272,0,0,1-3.268-3.268,3.221,3.221,0,0,1,.194-1.075.418.418,0,0,1,.02-.045,3.267,3.267,0,0,1,2-1.96c.049-.017.1-.031.147-.046a2.964,2.964,0,0,1,1.819,0c.05.015.1.029.15.047a3.265,3.265,0,0,1,2,1.959.485.485,0,0,1,.023.054,3.2,3.2,0,0,1,.191,1.066A3.272,3.272,0,0,1,34.634,32.287Zm7.48-6.076a.461.461,0,0,1-.461.461H39.479a.478.478,0,0,1-.4-.236c-.016-.023-.032-.046-.046-.069-.091-.15-.181-.285-.276-.412-.071-.1-.15-.186-.228-.277l-.017-.019a5.158,5.158,0,0,0-.474-.482c-.109-.1-.238-.208-.372-.306-.1-.077-.209-.148-.325-.22a5.211,5.211,0,0,0-.518-.281l-.065-.031c-.076-.036-.151-.072-.231-.1a5.033,5.033,0,0,0-.725-.225c-.085-.02-.17-.037-.259-.053a4.46,4.46,0,0,0-1.812,0c-.087.016-.172.033-.256.052a5.113,5.113,0,0,0-.728.227c-.078.031-.153.067-.229.1l-.063.03a5.161,5.161,0,0,0-.521.283c-.115.071-.221.142-.324.218-.134.1-.263.211-.372.308a5,5,0,0,0-.473.48l-.018.02c-.078.091-.157.18-.229.278-.094.126-.184.261-.274.41-.015.024-.031.047-.052.077a.462.462,0,0,1-.4.229H27.615a.461.461,0,0,1-.461-.461v-15.9H33.23a.46.46,0,0,1,.461.461v7.019a.944.944,0,0,0,.943.942h7.019a.462.462,0,0,1,.461.461Z"/><path class="cls-1" d="M10.309,29.019a.943.943,0,1,1-.943-.943A.943.943,0,0,1,10.309,29.019Z"/><circle class="cls-1" cx="34.634" cy="29.019" r="0.943"/></g></g></svg>