<svg xmlns="http://www.w3.org/2000/svg" viewBox="0 0 44 44"><defs><style>.cls-1{fill:#303030;}</style></defs><title>ecommerce-icon-7</title><g id="Layer_2" data-name="Layer 2"><g id="Layer_1-2" data-name="Layer 1"><path class="cls-1" d="M6.554,36.5a.939.939,0,1,0,0,1.878h.008A.939.939,0,1,0,6.554,36.5Z"/><path class="cls-1" d="M42.966,25.356a.459.459,0,0,1,.041-.541c.072-.086.142-.171.208-.258a4.229,4.229,0,0,0,.763-3,1.268,1.268,0,0,0-.052-.276.465.465,0,0,1-.023-.143.957.957,0,0,0-.024-.212,12.188,12.188,0,0,0-.542-1.484,4.094,4.094,0,0,0-3.827-2.6H31.842a.461.461,0,0,1-.461-.461,52.4,52.4,0,0,1,.542-6.391.541.541,0,0,1,.012-.055,13.5,13.5,0,0,0,.524-3.888A8.217,8.217,0,0,0,31.9,3.176a6.246,6.246,0,0,0-1.149-1.85A3.941,3.941,0,0,0,28.717.088,3.609,3.609,0,0,0,27.927,0a3.52,3.52,0,0,0-.643.059,2.9,2.9,0,0,0-1.322.608,2.41,2.41,0,0,0-.751,1.2,3.822,3.822,0,0,0-.15.956,5.843,5.843,0,0,0,.107,1.182,3.507,3.507,0,0,1,.072.858,40.621,40.621,0,0,1-1.812,6.113c-.265.6-.552,1.2-.877,1.849a24.8,24.8,0,0,1-5.233,7.191,9.29,9.29,0,0,1-3.7,1.986.412.412,0,0,1-.092.01.458.458,0,0,1-.452-.375,2.437,2.437,0,0,0-2.385-1.987H2.432A2.442,2.442,0,0,0,0,22.1V41.553A2.442,2.442,0,0,0,2.432,44h8.253a2.442,2.442,0,0,0,2.432-2.447V24.447a.582.582,0,0,1,.021-.122.462.462,0,0,1,.406-.393,10.586,10.586,0,0,0,5.048-2.524,26.619,26.619,0,0,0,5.643-7.732c.338-.673.638-1.306.917-1.935a40.869,40.869,0,0,0,1.962-6.68,4.927,4.927,0,0,0-.089-1.373,4.251,4.251,0,0,1-.08-.791,3.372,3.372,0,0,1,.063-.509.458.458,0,0,1,.154-.264,1.049,1.049,0,0,1,.476-.213,1.725,1.725,0,0,1,.289-.024,1.666,1.666,0,0,1,.362.039,2.1,2.1,0,0,1,1.058.664,4.394,4.394,0,0,1,.8,1.3A6.3,6.3,0,0,1,30.572,6.1a11.742,11.742,0,0,1-.479,3.428.711.711,0,0,0-.022.106,53.125,53.125,0,0,0-.576,6.781,2.365,2.365,0,0,0,2.2,2.314c.033,0,.067.005.1.005H39.51a2.219,2.219,0,0,1,2.073,1.408c.226.568.365.929.425,1.105a.457.457,0,0,1,.023.1,2.527,2.527,0,0,0,.058.317c0,.021.008.042.01.063a2.382,2.382,0,0,1-.391,1.7c-.057.076-.12.15-.2.237a3.74,3.74,0,0,0-.57.82,1.471,1.471,0,0,0,.313,1.708c.01.013.019.025.028.039a2.9,2.9,0,0,1,.4.8c.174.637-.309,1.372-1.523,2.314a2.4,2.4,0,0,0-.887,1.168,2.206,2.206,0,0,0,.3,1.741l.03.056a1.407,1.407,0,0,1,.123.277,1.48,1.48,0,0,1-.587,1.577l-.026.012-.145.06a2.315,2.315,0,0,0-.8.47,1.847,1.847,0,0,0-.393,1.952,4.75,4.75,0,0,0,.24.559,2.343,2.343,0,0,1,.145.321.462.462,0,0,1,.018.082,1.065,1.065,0,0,1-.22.8,2.83,2.83,0,0,1-2.21.894H21.933a.943.943,0,1,0,0,1.886H35.744a4.627,4.627,0,0,0,3.708-1.638,2.954,2.954,0,0,0,.592-2.156,2.825,2.825,0,0,0-.3-.926.465.465,0,0,1,.215-.616,3.322,3.322,0,0,0,1.587-3.749,3.37,3.37,0,0,0-.3-.717.462.462,0,0,1,.115-.6c.673-.523,2.724-2.118,2.137-4.263A4.4,4.4,0,0,0,42.966,25.356ZM11.23,41.653a.46.46,0,0,1-.46.461H2.347a.46.46,0,0,1-.461-.461V22a.46.46,0,0,1,.461-.461H10.77a.46.46,0,0,1,.46.461Z"/></g></g></svg>