<svg xmlns="http://www.w3.org/2000/svg" viewBox="0 0 44 44"><defs><style>.cls-1{fill:#303030;}</style></defs><title>ecommerce-icon-5</title><g id="Layer_2" data-name="Layer 2"><g id="Layer_1-2" data-name="Layer 1"><path class="cls-1" d="M5.154,44a.945.945,0,0,1-.943-.943V23.408a.46.46,0,0,0-.46-.461H.943A.944.944,0,0,1,0,22V13.583a.944.944,0,0,1,.943-.943h1.4a.461.461,0,0,0,.461-.461V8.6c0-.1,0-.2.008-.3,0-.08.006-.16.008-.243,0-.014,0-.028,0-.041s0-.032-.006-.046A.54.54,0,0,0,2.828,7.9V7.88C2.936,3.625,3.938,1.151,5.893.308A3.847,3.847,0,0,1,7.423,0c2.763,0,6.122,2.71,8.74,5.071a.463.463,0,0,0,.309.119.436.436,0,0,0,.118-.016.458.458,0,0,0,.319-.3.922.922,0,0,1,.88-.654h8.422a.935.935,0,0,1,.88.654.46.46,0,0,0,.319.3.477.477,0,0,0,.118.015.458.458,0,0,0,.309-.119C30.453,2.71,33.811,0,36.574,0a3.862,3.862,0,0,1,1.533.308c1.955.843,2.957,3.317,3.064,7.564V7.9a.686.686,0,0,0,.01.075c0,.014,0,.03-.005.046s0,.027,0,.041c0,.083,0,.163.008.243,0,.1.008.193.008.3v3.581a.461.461,0,0,0,.461.461h1.4a.944.944,0,0,1,.943.943V22a.944.944,0,0,1-.943.943H40.249a.46.46,0,0,0-.46.461V43.057a.945.945,0,0,1-.943.943ZM27.615,22.947a.461.461,0,0,0-.461.461V41.654a.461.461,0,0,0,.461.46h9.827a.46.46,0,0,0,.46-.46V23.408a.46.46,0,0,0-.46-.461h-3.56a.461.461,0,0,0-.443.585,20.08,20.08,0,0,1,.734,5.49.943.943,0,1,1-1.886,0,18.036,18.036,0,0,0-.881-5.761.46.46,0,0,0-.436-.314Zm-8.423,0a.46.46,0,0,0-.46.461V41.654a.46.46,0,0,0,.46.46h5.616a.46.46,0,0,0,.46-.46V23.408a.46.46,0,0,0-.46-.461Zm-12.634,0a.461.461,0,0,0-.461.461V41.654a.461.461,0,0,0,.461.46h9.827a.461.461,0,0,0,.461-.46V23.408a.461.461,0,0,0-.461-.461H13.03a.46.46,0,0,0-.436.314,18.036,18.036,0,0,0-.881,5.761.943.943,0,0,1-1.886,0,20.08,20.08,0,0,1,.734-5.49.461.461,0,0,0-.443-.585Zm21.6-8.421a.461.461,0,0,0-.274.831A14.746,14.746,0,0,1,32.423,20.8a.462.462,0,0,0,.415.258h8.815a.46.46,0,0,0,.461-.46V14.986a.46.46,0,0,0-.461-.46ZM22,14.561a.443.443,0,0,0-.108.013,13.292,13.292,0,0,0-7.935,5.783.46.46,0,0,0,.391.7h15.3a.46.46,0,0,0,.391-.7,13.292,13.292,0,0,0-7.935-5.783A.443.443,0,0,0,22,14.561ZM2.347,14.526a.46.46,0,0,0-.461.46V20.6a.46.46,0,0,0,.461.46h8.815a.462.462,0,0,0,.415-.258,14.737,14.737,0,0,1,4.538-5.446.461.461,0,0,0-.274-.831ZM36.539,1.882c-2.621,0-7.042,4.179-9.166,6.187l-.074.07a.461.461,0,0,0-.145.334v3.706a.461.461,0,0,0,.461.461H38.846a.46.46,0,0,0,.46-.461V9.372a.46.46,0,0,0-.46-.46H36.038a.943.943,0,1,1,0-1.886h2.724a.46.46,0,0,0,.459-.5c-.272-3.159-1.161-4.183-1.859-4.486A2.1,2.1,0,0,0,36.539,1.882ZM19.192,6.105a.46.46,0,0,0-.46.46v5.614a.46.46,0,0,0,.46.461h5.616a.46.46,0,0,0,.46-.461V6.565a.46.46,0,0,0-.46-.46ZM5.154,8.912a.46.46,0,0,0-.46.46v2.807a.46.46,0,0,0,.46.461H16.385a.461.461,0,0,0,.461-.461V8.473a.461.461,0,0,0-.146-.336l-.075-.071C13.39,5.009,9.77,1.882,7.461,1.882a2.081,2.081,0,0,0-.82.157c-.7.3-1.59,1.328-1.863,4.487a.461.461,0,0,0,.459.5H7.962a.943.943,0,1,1,0,1.886Z"/></g></g></svg>