<svg xmlns="http://www.w3.org/2000/svg" viewBox="0 0 44 44"><defs><style>.cls-1{fill:#303030;}</style></defs><title>ecommerce-icon-10</title><g id="Layer_2" data-name="Layer 2"><g id="Layer_1-2" data-name="Layer 1"><path class="cls-1" d="M43.492,33.953a3.257,3.257,0,0,0-3.255-2.11,7.226,7.226,0,0,0-1.767.246c-.817.209-1.657.445-2.469.673l-.027.007a47.7,47.7,0,0,1-5.71,1.352.534.534,0,0,1-.069,0,.461.461,0,0,1-.455-.389l-.014-.1c-.009-.059-.017-.119-.031-.18-.407-1.777-2.12-3.675-5.7-3.675a11.452,11.452,0,0,0-1.469.1,10.809,10.809,0,0,1-1.341.093,3.8,3.8,0,0,1-3.441-1.647,4.462,4.462,0,0,0-1.462-1.29,5.91,5.91,0,0,0-2.563-.51,14.671,14.671,0,0,0-5.378,1.237.467.467,0,0,1-.435-.04.461.461,0,0,1-.206-.384V23.4a.944.944,0,0,0-.943-.943H.943A.944.944,0,0,0,0,23.4V43.057A.944.944,0,0,0,.943,44h5.81a.944.944,0,0,0,.943-.943V40.321a.461.461,0,0,1,.6-.439C12.134,41.12,21.393,44,24.524,44c3.342,0,15.3-4.34,18.719-6.532C43.581,37.252,44.608,36.6,43.492,33.953ZM5.81,41.653a.461.461,0,0,1-.461.461h-3a.46.46,0,0,1-.461-.461V24.808a.46.46,0,0,1,.461-.461h3a.461.461,0,0,1,.461.461Zm36.043-5.546c-3.761,2.19-14.774,6.007-17.329,6.007-3.227,0-15.16-3.867-16.51-4.307a.461.461,0,0,1-.318-.439V30.442a.461.461,0,0,1,.24-.405,13.255,13.255,0,0,1,5.783-1.63,4.066,4.066,0,0,1,1.744.327,3,3,0,0,1,.819.786l.015.017a5.575,5.575,0,0,0,4.917,2.318,12.379,12.379,0,0,0,1.545-.105,9.677,9.677,0,0,1,1.25-.085,4.224,4.224,0,0,1,3.332,1.2,2.325,2.325,0,0,1,.56,1.273.461.461,0,0,1-.295.475l-.573.219a11.841,11.841,0,0,1-3.382.967,1.454,1.454,0,0,1-.343-.037c-.714-.178-2.8-.712-6.209-1.59l0,0-2.162-.558-.012,0-.1-.025,0,.01a.938.938,0,0,0-.466,1.8l0,.011,2.253.582.016,0h0c2.29.591,5.333,1.375,6.23,1.6a3.243,3.243,0,0,0,.773.086,12.638,12.638,0,0,0,4.087-1.087l.043-.017c.341-.133.663-.258.938-.35h0c.028-.015.056-.029.085-.041a.433.433,0,0,1,.142-.033,38.2,38.2,0,0,0,7.56-1.562c.911-.257,1.671-.469,2.456-.67a5.373,5.373,0,0,1,1.3-.2,1.416,1.416,0,0,1,1.516.967,5.893,5.893,0,0,1,.317.919A.46.46,0,0,1,41.853,36.107Z"/><path class="cls-1" d="M30.423,21.539a.944.944,0,0,1-.943-.943v-.2a.462.462,0,0,0-.324-.44,3.781,3.781,0,0,1-2.423-2.228.942.942,0,0,1,.549-1.216.93.93,0,0,1,.333-.061.946.946,0,0,1,.882.61,2.113,2.113,0,0,0,3.227.671,1.657,1.657,0,0,0,.563-1.233c0-1.011-1.357-1.7-2.185-2.032l-.016-.007c-2.972-1.175-3.414-2.885-3.414-3.8a3.523,3.523,0,0,1,1.184-2.629,3.844,3.844,0,0,1,1.316-.769.46.46,0,0,0,.308-.435V6.558a.943.943,0,0,1,1.886,0v.2a.46.46,0,0,0,.324.44,3.78,3.78,0,0,1,2.423,2.229.942.942,0,0,1-.881,1.275h0a.947.947,0,0,1-.884-.61,2.113,2.113,0,0,0-3.225-.669,1.652,1.652,0,0,0-.565,1.233c0,1.014,1.382,1.714,2.205,2.041h0l.016.006c2.955,1.167,3.4,2.877,3.4,3.793a3.522,3.522,0,0,1-1.181,2.629,3.884,3.884,0,0,1-1.319.771.46.46,0,0,0-.307.434V20.6A.944.944,0,0,1,30.423,21.539Z"/><path class="cls-1" d="M30.265,27.155a13.632,13.632,0,0,1-13.4-10.567.944.944,0,0,1,.708-1.13.9.9,0,0,1,.216-.026.95.95,0,0,1,.915.734,11.7,11.7,0,0,0,.381,1.3,11.874,11.874,0,0,0,23.025-3.891A11.784,11.784,0,0,0,30.265,1.886a11.92,11.92,0,0,0-3.951.666A.922.922,0,0,1,26,2.607h0A.945.945,0,0,1,25.692.771,13.818,13.818,0,0,1,30.265,0,13.672,13.672,0,0,1,44,13.577,13.672,13.672,0,0,1,30.265,27.155Z"/><path class="cls-1" d="M17.789,4.694a.944.944,0,0,1-.943-.943v-1.4a.943.943,0,0,1,1.886,0v1.4A.945.945,0,0,1,17.789,4.694Z"/><path class="cls-1" d="M17.789,11.713a.944.944,0,0,1-.943-.943v-1.4a.943.943,0,0,1,1.886,0v1.4A.945.945,0,0,1,17.789,11.713Z"/><path class="cls-1" d="M20.6,7.5a.943.943,0,0,1,0-1.886H22A.943.943,0,0,1,22,7.5Z"/><path class="cls-1" d="M13.577,7.5a.943.943,0,1,1,0-1.886h1.4a.943.943,0,1,1,0,1.886Z"/></g></g></svg>