<svg xmlns="http://www.w3.org/2000/svg" viewBox="0 0 44 29.962"><defs><style>.cls-1{fill:#303030;}</style></defs><title>ecommerce-icon-4</title><g id="Layer_2" data-name="Layer 2"><g id="Layer_1-2" data-name="Layer 1"><path class="cls-1" d="M41.653,0H2.347A2.35,2.35,0,0,0,0,2.347V27.615a2.35,2.35,0,0,0,2.347,2.347H41.653A2.35,2.35,0,0,0,44,27.615V2.347A2.35,2.35,0,0,0,41.653,0Zm.461,27.615a.461.461,0,0,1-.461.461H2.347a.46.46,0,0,1-.461-.461V2.347a.46.46,0,0,1,.461-.461H41.653a.461.461,0,0,1,.461.461Z"/><path class="cls-1" d="M10.769,22.46H7.962a.944.944,0,0,0,0,1.887h2.807a.944.944,0,1,0,0-1.887Z"/><path class="cls-1" d="M19.192,22.46H16.385a.944.944,0,0,0,0,1.887h2.807a.944.944,0,0,0,0-1.887Z"/><path class="cls-1" d="M27.615,22.46H24.807a.944.944,0,0,0,0,1.887h2.808a.944.944,0,0,0,0-1.887Z"/><path class="cls-1" d="M36.038,22.46H33.23a.944.944,0,0,0,0,1.887h2.808a.944.944,0,0,0,0-1.887Z"/><path class="cls-1" d="M10.068,5.615a4.453,4.453,0,1,0,4.452,4.452A4.457,4.457,0,0,0,10.068,5.615Zm0,7.019a2.567,2.567,0,1,1,2.566-2.567A2.57,2.57,0,0,1,10.068,12.634Z"/><path class="cls-1" d="M37.442,5.615H29.019a.944.944,0,0,0-.943.943v5.615a.944.944,0,0,0,.943.943h8.423a.944.944,0,0,0,.943-.943V6.558A.944.944,0,0,0,37.442,5.615ZM36.5,10.77a.46.46,0,0,1-.46.46H30.423a.46.46,0,0,1-.461-.46V7.962a.46.46,0,0,1,.461-.461h5.615a.46.46,0,0,1,.46.461Z"/></g></g></svg>