<svg xmlns="http://www.w3.org/2000/svg" viewBox="0 0 44 35.579"><defs><style>.cls-1{fill:#303030;}</style></defs><title>Asset 13</title><g id="Layer_2" data-name="Layer 2"><g id="Layer_1-2" data-name="Layer 1"><path class="cls-1" d="M43.493,25.532a3.206,3.206,0,0,0-1.983-1.909.461.461,0,0,1-.316-.438V.943A.945.945,0,0,0,40.25,0H12.174a.944.944,0,0,0-.943.943V17.775h0v.446a.45.45,0,0,1-.3.256,16.93,16.93,0,0,0-2.591.862.47.47,0,0,1-.18.036A.455.455,0,0,1,7.9,19.3a.461.461,0,0,1-.206-.385V14.981a.944.944,0,0,0-.944-.942H.943A.943.943,0,0,0,0,14.981V34.635a.945.945,0,0,0,.943.944h5.81a.946.946,0,0,0,.944-.944V31.9a.459.459,0,0,1,.46-.461.488.488,0,0,1,.141.022c3.837,1.239,13.1,4.119,16.227,4.119,3.342,0,15.3-4.34,18.721-6.532C43.583,28.831,44.609,28.172,43.493,25.532ZM5.81,33.231a.46.46,0,0,1-.461.461h-3a.46.46,0,0,1-.461-.461V16.385a.46.46,0,0,1,.461-.46h3a.46.46,0,0,1,.461.46ZM22.944,2.347a.461.461,0,0,1,.46-.461H29.02a.462.462,0,0,1,.461.461v7.842a.461.461,0,0,1-.285.425.453.453,0,0,1-.176.035.464.464,0,0,1-.326-.134L26.879,8.7a.944.944,0,0,0-1.334,0L23.73,10.515a.464.464,0,0,1-.326.134.453.453,0,0,1-.176-.035.46.46,0,0,1-.284-.425Zm-9.827,0a.461.461,0,0,1,.461-.461H20.6a.462.462,0,0,1,.461.461V13.578a.939.939,0,0,0,.581.871.945.945,0,0,0,1.029-.2l3.218-3.22a.464.464,0,0,1,.652,0l3.219,3.22a.937.937,0,0,0,.667.276.953.953,0,0,0,.361-.072.939.939,0,0,0,.582-.871V2.347a.461.461,0,0,1,.461-.461h7.019a.462.462,0,0,1,.461.461V23.13a.461.461,0,0,1-.372.452c-.069.014-.136.024-.2.035a2.617,2.617,0,0,0-.263.05c-.8.2-1.621.435-2.416.658l-.075.021A47.537,47.537,0,0,1,30.265,25.7a.4.4,0,0,1-.069,0,.461.461,0,0,1-.455-.391l-.013-.093c-.009-.062-.017-.123-.032-.187-.407-1.775-2.123-3.672-5.72-3.672a11.694,11.694,0,0,0-1.452.095,10.636,10.636,0,0,1-1.351.1A3.79,3.79,0,0,1,17.74,19.9a4.416,4.416,0,0,0-1.461-1.289,5.859,5.859,0,0,0-2.564-.49h-.137a.459.459,0,0,1-.461-.46ZM41.855,27.686c-3.759,2.189-14.773,6.006-17.33,6.006-3.231,0-15.161-3.867-16.511-4.308a.46.46,0,0,1-.317-.438V22.02a.459.459,0,0,1,.24-.405,13.241,13.241,0,0,1,5.78-1.633,4.069,4.069,0,0,1,1.747.329,3.02,3.02,0,0,1,.83.8A5.581,5.581,0,0,0,21.23,23.43a12.314,12.314,0,0,0,1.531-.1,9.875,9.875,0,0,1,1.25-.084,4.22,4.22,0,0,1,3.331,1.2,2.336,2.336,0,0,1,.56,1.273.461.461,0,0,1-.3.475c-.181.068-.373.143-.573.22l-.024.009a12.252,12.252,0,0,1-3.345.959,1.47,1.47,0,0,1-.354-.039c-.464-.115.088.019-2.469-.646l-.008,0-2.955-.765v0l-2.137-.551a.943.943,0,0,0-.479,1.824c1.463.378,3.836,1,5.587,1.452.778.2,1.5.389,2.006.516a3.214,3.214,0,0,0,.773.087,12.6,12.6,0,0,0,4.087-1.088l.036-.014c.343-.133.667-.258.945-.353.029-.015.057-.029.087-.041a.44.44,0,0,1,.139-.032,39.04,39.04,0,0,0,7.569-1.565c.8-.225,1.632-.458,2.45-.667a5.311,5.311,0,0,1,1.3-.2,1.434,1.434,0,0,1,1.519.968,5.932,5.932,0,0,1,.316.917A.462.462,0,0,1,41.855,27.686Z"/></g></g></svg>