<svg id="Layer_1" data-name="Layer 1" xmlns="http://www.w3.org/2000/svg" viewBox="0 0 58.217 99.346"><defs><style>.cls-1{fill:#f4c222;}.cls-2{fill:#256782;}</style></defs><title>ideas</title><path class="cls-1" d="M55.275,34.812c0-12.87-10.333-23.242-22.882-22.716-11.038.462-20.245,9.706-21.005,21.11a23.058,23.058,0,0,0,6.571,17.84,7.26,7.26,0,0,1,2.164,5.088V63.8a4.583,4.583,0,0,0,4.5,4.66H41.983a4.584,4.584,0,0,0,4.5-4.66V56.133c0-1.934-.258-6.458,1.08-7.809C51.648,44.2,55.275,41.181,55.275,34.812Z"/><path class="cls-2" d="M39.838,71.26H18.379a7.523,7.523,0,0,1-7.515-7.514V54.587A6.566,6.566,0,0,0,8.774,49.9,29.071,29.071,0,0,1,.07,27.059,29.388,29.388,0,0,1,27.9.026,29.109,29.109,0,0,1,58.217,29.111,28.838,28.838,0,0,1,49.441,49.9a6.568,6.568,0,0,0-2.089,4.686v9.159A7.523,7.523,0,0,1,39.838,71.26ZM29.117,3.892c-.353,0-.7.007-1.058.022A25.453,25.453,0,0,0,3.951,27.327a25.186,25.186,0,0,0,7.541,19.79,10.425,10.425,0,0,1,3.262,7.47v9.159a3.628,3.628,0,0,0,3.625,3.623H39.838a3.626,3.626,0,0,0,3.623-3.623V54.587a10.425,10.425,0,0,1,3.263-7.47A25.2,25.2,0,0,0,29.117,3.892Z"/><path class="cls-2" d="M24.292,43.009H18.859a7.378,7.378,0,1,1,7.378-7.378v5.433A1.945,1.945,0,0,1,24.292,43.009ZM18.859,32.143a3.488,3.488,0,0,0,0,6.976h3.488V35.631A3.493,3.493,0,0,0,18.859,32.143Z"/><path class="cls-2" d="M24.292,69.605a1.945,1.945,0,0,1-1.945-1.945v-26.6a1.945,1.945,0,1,1,3.89,0v26.6A1.945,1.945,0,0,1,24.292,69.605Z"/><path class="cls-2" d="M39.356,43.009H33.924a1.945,1.945,0,0,1-1.946-1.945V35.631a7.379,7.379,0,1,1,7.378,7.378Zm-3.487-3.89h3.487a3.488,3.488,0,1,0-3.487-3.488Z"/><path class="cls-2" d="M33.924,69.605a1.945,1.945,0,0,1-1.946-1.945v-26.6a1.946,1.946,0,0,1,3.891,0v26.6A1.945,1.945,0,0,1,33.924,69.605Z"/><path class="cls-2" d="M37.8,43.009H21.639a1.945,1.945,0,1,1,0-3.89H37.8a1.945,1.945,0,1,1,0,3.89Z"/><path class="cls-2" d="M43.233,80.307H14.982a1.945,1.945,0,1,1,0-3.89H43.233a1.945,1.945,0,1,1,0,3.89Z"/><path class="cls-2" d="M43.233,89H14.982a1.945,1.945,0,1,1,0-3.89H43.233a1.945,1.945,0,1,1,0,3.89Z"/><path class="cls-2" d="M29.108,99.346a8.9,8.9,0,0,1-8.892-8.893V89.064a1.945,1.945,0,1,1,3.89,0v1.389a5,5,0,0,0,10,0V89.064a1.945,1.945,0,1,1,3.89,0v1.389A8.9,8.9,0,0,1,29.108,99.346Z"/></svg>