<svg id="Layer_1" data-name="Layer 1" xmlns="http://www.w3.org/2000/svg" viewBox="0 0 64.746 99.759"><defs><style>.cls-1{fill:#ef8975;}.cls-2{fill:#256782;}</style></defs><title>projects</title><path class="cls-1" d="M37.706,5.694a30.851,30.851,0,0,0-7.018,4.919,62.183,62.183,0,0,0-6.957,7.909s12.9,1.32,16.337.331,8.168-2.44,7.8-2.523S37.706,5.694,37.706,5.694Z"/><path class="cls-1" d="M47.792,93.254c.081.051,5.946-15.187,7.384-19.319s-1.168-11.5-1.168-11.5l1.6-8.624,2.767,1.754s3.832,8.838,3.9,9.186-.454,13.673-.454,13.673L54.547,98.278Z"/><path class="cls-1" d="M4.943,57.9A69.309,69.309,0,0,0,8.188,73.279c2.827,8.706,8.342,20.233,8.555,20.1L23.6,89.052s-7.711-14.077-9.327-20.634S10.39,51.732,9.441,52.294,4.943,57.9,4.943,57.9Z"/><path class="cls-2" d="M32.366,47.757a9.648,9.648,0,1,1,9.647-9.647A9.659,9.659,0,0,1,32.366,47.757Zm0-15.4a5.758,5.758,0,1,0,5.757,5.758A5.764,5.764,0,0,0,32.366,32.352Z"/><path class="cls-2" d="M9.714,99.759a1.948,1.948,0,0,1-1.851-1.345l-7-21.588A27.544,27.544,0,0,1,8,50.553a1.946,1.946,0,0,1,3.292,1.037C12.569,58.839,15.5,65.6,19.2,74.166A129.279,129.279,0,0,0,25.05,85.991h.295a1.952,1.952,0,0,1,1.043,3.6L10.752,99.459A1.95,1.95,0,0,1,9.714,99.759ZM8.306,56.182A23.612,23.612,0,0,0,4.6,75.744l6.191,19.089,10.9-6.878A133.737,133.737,0,0,1,15.631,75.71C12.6,68.7,9.911,62.49,8.306,56.182Z"/><path class="cls-2" d="M55.018,99.759a1.95,1.95,0,0,1-1.038-.3L46.754,94.9a1.945,1.945,0,0,1,2.076-3.29l5.109,3.224,6.226-19.206a23.538,23.538,0,0,0-3.739-19.446c-1.6,6.3-4.292,12.517-7.324,19.525A133.288,133.288,0,0,1,42.5,88.9a1.945,1.945,0,1,1-3.377-1.93,129.45,129.45,0,0,0,6.4-12.805c3.708-8.571,6.635-15.338,7.912-22.576a1.946,1.946,0,0,1,3.292-1.037A27.514,27.514,0,0,1,63.9,76.709L56.869,98.414a1.944,1.944,0,0,1-1.851,1.345Z"/><path class="cls-2" d="M40.82,89.891H23.912a1.944,1.944,0,0,1-1.69-.982A133.118,133.118,0,0,1,15.636,75.7C10.3,63.372,6.076,53.634,6.814,41.114a52.537,52.537,0,0,1,8.513-25.5c.009-.015.1-.135.107-.149l.1-.141A50.873,50.873,0,0,1,31.352.285a1.951,1.951,0,0,1,2.028,0A51.327,51.327,0,0,1,49.406,15.593c.038.057.073.117.105.177a52.557,52.557,0,0,1,8.4,25.346c.74,12.512-3.478,22.248-8.817,34.575l-1.79-.763L49.1,75.7A133.337,133.337,0,0,1,42.51,88.909,1.944,1.944,0,0,1,40.82,89.891ZM25.049,86H39.683a129.017,129.017,0,0,0,5.839-11.842v0l.006-.011c5.335-12.314,9.188-21.212,8.5-32.8a48.509,48.509,0,0,0-7.855-23.562,1.8,1.8,0,0,1-.1-.173A47.366,47.366,0,0,0,32.366,4.241,47,47,0,0,0,18.709,17.57c-.009.014-.1.134-.107.148l-.1.14a48.515,48.515,0,0,0-7.8,23.484c-.683,11.6,3.172,20.5,8.509,32.813A129.506,129.506,0,0,0,25.049,86Z"/><path class="cls-2" d="M33.328,20.8A54.454,54.454,0,0,1,16.6,18.181a1.945,1.945,0,0,1,1.192-3.7,51.119,51.119,0,0,0,29.541.464,1.945,1.945,0,0,1,1.076,3.739A54.562,54.562,0,0,1,33.328,20.8Z"/><path class="cls-2" d="M36.036,78.3H18.049a1.946,1.946,0,0,1,0-3.891H36.036a1.946,1.946,0,0,1,0,3.891Z"/></svg>