<svg id="Layer_1" data-name="Layer 1" xmlns="http://www.w3.org/2000/svg" viewBox="0 0 69.987 98.908"><defs><style>.cls-1{fill:#b0e55c;}.cls-2{fill:#256782;}</style></defs><title>research-1</title><path class="cls-1" d="M56.266,60.26a22.729,22.729,0,0,0-3.257-.232c-11.865,0-14.937,10.318-26.8,10.318a19.79,19.79,0,0,1-5.776-.774,15.542,15.542,0,0,0-.109,3.2C20.9,81.127,29.411,86.8,38.278,87.2c.3.013.576.013.89.026,4.749,0,8.487-3.3,11.84-6.475s5.951-5.814,5.951-10.289C56.959,67.292,57.977,62.852,56.266,60.26Z"/><path class="cls-2" d="M35.013,98.908c-.579,0-1.161-.014-1.743-.042A34.985,34.985,0,0,1,20.794,31.943a3.187,3.187,0,0,0,1.925-2.888V24.82a1.946,1.946,0,0,1,3.891,0v4.235A7.079,7.079,0,0,1,22.374,35.5,31.1,31.1,0,0,0,33.456,94.98,31.1,31.1,0,0,0,47.592,35.49a7.06,7.06,0,0,1-4.217-6.433V10.208A1.944,1.944,0,0,1,45.32,8.263h2.065a2.187,2.187,0,1,0,0-4.373H22.6a2.187,2.187,0,1,0,0,4.373h2.065a1.945,1.945,0,0,1,1.946,1.945v4.8a1.946,1.946,0,0,1-3.891,0V12.153H22.6A6.077,6.077,0,1,1,22.6,0H47.385a6.077,6.077,0,1,1,0,12.153h-.12v16.9a3.169,3.169,0,0,0,1.9,2.877A34.987,34.987,0,0,1,35.013,98.908Z"/><path class="cls-2" d="M34.992,89.23l-1.207-.037a24.486,24.486,0,0,1-23.009-22.6,23.684,23.684,0,0,1,.147-4.624,1.946,1.946,0,0,1,2.522-1.614A21.653,21.653,0,0,0,20.1,61.3c6.837,0,10.211-2.335,13.784-4.807,3.9-2.7,7.945-5.5,16-5.5a28.81,28.81,0,0,1,4.38.33,1.951,1.951,0,0,1,1.359.9A24.256,24.256,0,0,1,34.992,89.23ZM14.618,64.672c-.012.568,0,1.118.039,1.657A20.553,20.553,0,0,0,33.968,85.307l1.111.034a20.345,20.345,0,0,0,17.7-30.295,24.753,24.753,0,0,0-2.894-.166c-6.838,0-10.212,2.335-13.785,4.807-3.905,2.7-7.943,5.5-16,5.5A27.539,27.539,0,0,1,14.618,64.672Z"/></svg>